<mxfile host="app.diagrams.net" agent="Mozilla/5.0 (Windows NT 10.0; Win64; x64) AppleWebKit/537.36 (KHTML, like Gecko) Chrome/124.0.0.0 Safari/537.36" version="24.7.5">
  <diagram name="Página-1" id="Z15a9pBBhdNO8e6L7Eeq">
    <mxGraphModel dx="1257" dy="609" grid="1" gridSize="10" guides="1" tooltips="1" connect="1" arrows="1" fold="1" page="1" pageScale="1" pageWidth="1654" pageHeight="1169" math="0" shadow="0">
      <root>
        <mxCell id="0" />
        <mxCell id="1" parent="0" />
        <object placeholders="1" c4Name="API Aplicación" c4Type="Contenedor" label="&lt;font style=&quot;font-size: 16px&quot;&gt;&lt;b&gt;&lt;div style=&quot;text-align: left&quot;&gt;%c4Name%&lt;/div&gt;&lt;/b&gt;&lt;/font&gt;&lt;div style=&quot;text-align: left&quot;&gt;[%c4Application%]&lt;/div&gt;" id="6dciglApY7YEgq8CEYNH-1">
          <mxCell style="rounded=1;fontSize=11;whiteSpace=wrap;html=1;dashed=1;arcSize=20;fillColor=none;strokeColor=#666666;fontColor=#333333;labelBackgroundColor=none;align=left;verticalAlign=bottom;labelBorderColor=none;spacingTop=0;spacing=10;dashPattern=8 4;metaEdit=1;rotatable=0;perimeter=rectanglePerimeter;noLabel=0;labelPadding=0;allowArrows=0;connectable=0;expand=0;recursiveResize=0;editable=1;pointerEvents=0;absoluteArcSize=1;points=[[0.25,0,0],[0.5,0,0],[0.75,0,0],[1,0.25,0],[1,0.5,0],[1,0.75,0],[0.75,1,0],[0.5,1,0],[0.25,1,0],[0,0.75,0],[0,0.5,0],[0,0.25,0]];" vertex="1" parent="1">
            <mxGeometry x="50" y="370" width="1080" height="450" as="geometry" />
          </mxCell>
        </object>
        <mxCell id="6dciglApY7YEgq8CEYNH-21" style="rounded=0;orthogonalLoop=1;jettySize=auto;html=1;dashed=1;dashPattern=12 12;" edge="1" parent="1" source="6dciglApY7YEgq8CEYNH-40" target="6dciglApY7YEgq8CEYNH-3">
          <mxGeometry relative="1" as="geometry" />
        </mxCell>
        <mxCell id="6dciglApY7YEgq8CEYNH-22" style="rounded=0;orthogonalLoop=1;jettySize=auto;html=1;dashed=1;dashPattern=12 12;" edge="1" parent="1" source="6dciglApY7YEgq8CEYNH-42" target="6dciglApY7YEgq8CEYNH-13">
          <mxGeometry relative="1" as="geometry" />
        </mxCell>
        <mxCell id="6dciglApY7YEgq8CEYNH-23" style="rounded=0;orthogonalLoop=1;jettySize=auto;html=1;dashed=1;dashPattern=12 12;" edge="1" parent="1" source="6dciglApY7YEgq8CEYNH-46" target="6dciglApY7YEgq8CEYNH-15">
          <mxGeometry relative="1" as="geometry" />
        </mxCell>
        <object placeholders="1" c4Name="Contenedor de Aplicaciones" c4Type="Container" c4Technology="Pagina: JavaScript, Angular." c4Description="Proporciona toda la gestión y uso de MB a través del navegador" label="&lt;font style=&quot;font-size: 16px&quot;&gt;&lt;b&gt;%c4Name%&lt;/b&gt;&lt;/font&gt;&lt;div&gt;[%c4Type%:&amp;nbsp;%c4Technology%]&lt;/div&gt;&lt;br&gt;&lt;div&gt;&lt;font style=&quot;font-size: 11px&quot;&gt;&lt;font color=&quot;#E6E6E6&quot;&gt;%c4Description%&lt;/font&gt;&lt;/div&gt;" id="6dciglApY7YEgq8CEYNH-2">
          <mxCell style="shape=mxgraph.c4.webBrowserContainer2;whiteSpace=wrap;html=1;boundedLbl=1;rounded=0;labelBackgroundColor=none;strokeColor=#118ACD;fillColor=#23A2D9;strokeColor=#118ACD;strokeColor2=#0E7DAD;fontSize=12;fontColor=#ffffff;align=center;metaEdit=1;points=[[0.5,0,0],[1,0.25,0],[1,0.5,0],[1,0.75,0],[0.5,1,0],[0,0.75,0],[0,0.5,0],[0,0.25,0]];resizable=0;" vertex="1" parent="1">
            <mxGeometry x="320" y="90" width="240" height="160" as="geometry" />
          </mxCell>
        </object>
        <object placeholders="1" c4Name="Controlador de inicio sesión" c4Type="Componente:Spring MVC Rest Controller" c4Description="Permite iniciar sesión en el sistema de gestión de MB" label="&lt;font style=&quot;font-size: 16px&quot;&gt;&lt;b&gt;%c4Name%&lt;/b&gt;&lt;/font&gt;&lt;div&gt;[%c4Type%]&lt;/div&gt;&lt;br&gt;&lt;div&gt;&lt;font style=&quot;font-size: 11px&quot;&gt;&lt;font color=&quot;#cccccc&quot;&gt;%c4Description%&lt;/font&gt;&lt;/div&gt;" id="6dciglApY7YEgq8CEYNH-3">
          <mxCell style="rounded=1;whiteSpace=wrap;html=1;labelBackgroundColor=none;fillColor=#1061B0;fontColor=#ffffff;align=center;arcSize=10;strokeColor=#0D5091;metaEdit=1;resizable=0;points=[[0.25,0,0],[0.5,0,0],[0.75,0,0],[1,0.25,0],[1,0.5,0],[1,0.75,0],[0.75,1,0],[0.5,1,0],[0.25,1,0],[0,0.75,0],[0,0.5,0],[0,0.25,0]];" vertex="1" parent="1">
            <mxGeometry x="90" y="400" width="240" height="120" as="geometry" />
          </mxCell>
        </object>
        <object placeholders="1" c4Name="Componente de seguridad" c4Type="Componente Spring Bean" c4Description="Provee funciones de inicio de sesión, cambio de contraseñas, etc." label="&lt;font style=&quot;font-size: 16px&quot;&gt;&lt;b&gt;%c4Name%&lt;/b&gt;&lt;/font&gt;&lt;div&gt;[%c4Type%]&lt;/div&gt;&lt;br&gt;&lt;div&gt;&lt;font style=&quot;font-size: 11px&quot;&gt;&lt;font color=&quot;#cccccc&quot;&gt;%c4Description%&lt;/font&gt;&lt;/div&gt;" id="6dciglApY7YEgq8CEYNH-4">
          <mxCell style="rounded=1;whiteSpace=wrap;html=1;labelBackgroundColor=none;fillColor=#1061B0;fontColor=#ffffff;align=center;arcSize=10;strokeColor=#0D5091;metaEdit=1;resizable=0;points=[[0.25,0,0],[0.5,0,0],[0.75,0,0],[1,0.25,0],[1,0.5,0],[1,0.75,0],[0.75,1,0],[0.5,1,0],[0.25,1,0],[0,0.75,0],[0,0.5,0],[0,0.25,0]];" vertex="1" parent="1">
            <mxGeometry x="90" y="640" width="240" height="120" as="geometry" />
          </mxCell>
        </object>
        <mxCell id="6dciglApY7YEgq8CEYNH-5" style="edgeStyle=orthogonalEdgeStyle;rounded=0;orthogonalLoop=1;jettySize=auto;html=1;entryX=0.5;entryY=0;entryDx=0;entryDy=0;entryPerimeter=0;dashed=1;dashPattern=12 12;" edge="1" parent="1" source="6dciglApY7YEgq8CEYNH-6" target="6dciglApY7YEgq8CEYNH-4">
          <mxGeometry relative="1" as="geometry" />
        </mxCell>
        <mxCell id="6dciglApY7YEgq8CEYNH-7" value="" style="edgeStyle=orthogonalEdgeStyle;rounded=0;orthogonalLoop=1;jettySize=auto;html=1;entryX=0.5;entryY=0;entryDx=0;entryDy=0;entryPerimeter=0;dashed=1;dashPattern=12 12;endArrow=none;endFill=0;" edge="1" parent="1" source="6dciglApY7YEgq8CEYNH-3" target="6dciglApY7YEgq8CEYNH-6">
          <mxGeometry relative="1" as="geometry">
            <mxPoint x="210" y="520" as="sourcePoint" />
            <mxPoint x="210" y="570" as="targetPoint" />
          </mxGeometry>
        </mxCell>
        <mxCell id="6dciglApY7YEgq8CEYNH-6" value="Usos" style="text;html=1;align=center;verticalAlign=middle;whiteSpace=wrap;rounded=0;" vertex="1" parent="1">
          <mxGeometry x="180" y="555" width="60" height="30" as="geometry" />
        </mxCell>
        <object placeholders="1" c4Name="Controlador restablecer contraseña" c4Type="Componente:Spring MVC Rest Controller " c4Description="Se permite restablecer las contraseñas con un URL de un único uso" label="&lt;font style=&quot;font-size: 16px&quot;&gt;&lt;b&gt;%c4Name%&lt;/b&gt;&lt;/font&gt;&lt;div&gt;[%c4Type%]&lt;/div&gt;&lt;br&gt;&lt;div&gt;&lt;font style=&quot;font-size: 11px&quot;&gt;&lt;font color=&quot;#cccccc&quot;&gt;%c4Description%&lt;/font&gt;&lt;/div&gt;" id="6dciglApY7YEgq8CEYNH-13">
          <mxCell style="rounded=1;whiteSpace=wrap;html=1;labelBackgroundColor=none;fillColor=#1061B0;fontColor=#ffffff;align=center;arcSize=10;strokeColor=#0D5091;metaEdit=1;resizable=0;points=[[0.25,0,0],[0.5,0,0],[0.75,0,0],[1,0.25,0],[1,0.5,0],[1,0.75,0],[0.75,1,0],[0.5,1,0],[0.25,1,0],[0,0.75,0],[0,0.5,0],[0,0.25,0]];" vertex="1" parent="1">
            <mxGeometry x="480" y="400" width="240" height="120" as="geometry" />
          </mxCell>
        </object>
        <object placeholders="1" c4Name="Componente de correo" c4Type="Componente:Spring Bean" c4Description="Envía correos a los usuarios" label="&lt;font style=&quot;font-size: 16px&quot;&gt;&lt;b&gt;%c4Name%&lt;/b&gt;&lt;/font&gt;&lt;div&gt;[%c4Type%]&lt;/div&gt;&lt;br&gt;&lt;div&gt;&lt;font style=&quot;font-size: 11px&quot;&gt;&lt;font color=&quot;#cccccc&quot;&gt;%c4Description%&lt;/font&gt;&lt;/div&gt;" id="6dciglApY7YEgq8CEYNH-14">
          <mxCell style="rounded=1;whiteSpace=wrap;html=1;labelBackgroundColor=none;fillColor=#1061B0;fontColor=#ffffff;align=center;arcSize=10;strokeColor=#0D5091;metaEdit=1;resizable=0;points=[[0.25,0,0],[0.5,0,0],[0.75,0,0],[1,0.25,0],[1,0.5,0],[1,0.75,0],[0.75,1,0],[0.5,1,0],[0.25,1,0],[0,0.75,0],[0,0.5,0],[0,0.25,0]];" vertex="1" parent="1">
            <mxGeometry x="480" y="640" width="240" height="120" as="geometry" />
          </mxCell>
        </object>
        <mxCell id="6dciglApY7YEgq8CEYNH-31" style="edgeStyle=orthogonalEdgeStyle;rounded=0;orthogonalLoop=1;jettySize=auto;html=1;dashed=1;dashPattern=12 12;" edge="1" parent="1" source="6dciglApY7YEgq8CEYNH-33" target="6dciglApY7YEgq8CEYNH-16">
          <mxGeometry relative="1" as="geometry" />
        </mxCell>
        <object placeholders="1" c4Name="Controlador información sumaria de MB" c4Type="Componente: Spring MVC Rest Controller" c4Description="Proporciona a los usuarios un detalle de sus reservaciones de MB así como también el MB disponible etc" label="&lt;font style=&quot;font-size: 16px&quot;&gt;&lt;b&gt;%c4Name%&lt;/b&gt;&lt;/font&gt;&lt;div&gt;[%c4Type%]&lt;/div&gt;&lt;br&gt;&lt;div&gt;&lt;font style=&quot;font-size: 11px&quot;&gt;&lt;font color=&quot;#cccccc&quot;&gt;%c4Description%&lt;/font&gt;&lt;/div&gt;" id="6dciglApY7YEgq8CEYNH-15">
          <mxCell style="rounded=1;whiteSpace=wrap;html=1;labelBackgroundColor=none;fillColor=#1061B0;fontColor=#ffffff;align=center;arcSize=10;strokeColor=#0D5091;metaEdit=1;resizable=0;points=[[0.25,0,0],[0.5,0,0],[0.75,0,0],[1,0.25,0],[1,0.5,0],[1,0.75,0],[0.75,1,0],[0.5,1,0],[0.25,1,0],[0,0.75,0],[0,0.5,0],[0,0.25,0]];" vertex="1" parent="1">
            <mxGeometry x="880" y="400" width="240" height="120" as="geometry" />
          </mxCell>
        </object>
        <object placeholders="1" c4Name="Fachada Principal de SSGEB" c4Type="Componente: Sping Bean" c4Description="Fachada principal en el SISGEB" label="&lt;font style=&quot;font-size: 16px&quot;&gt;&lt;b&gt;%c4Name%&lt;/b&gt;&lt;/font&gt;&lt;div&gt;[%c4Type%]&lt;/div&gt;&lt;br&gt;&lt;div&gt;&lt;font style=&quot;font-size: 11px&quot;&gt;&lt;font color=&quot;#cccccc&quot;&gt;%c4Description%&lt;/font&gt;&lt;/div&gt;" id="6dciglApY7YEgq8CEYNH-16">
          <mxCell style="rounded=1;whiteSpace=wrap;html=1;labelBackgroundColor=none;fillColor=#1061B0;fontColor=#ffffff;align=center;arcSize=10;strokeColor=#0D5091;metaEdit=1;resizable=0;points=[[0.25,0,0],[0.5,0,0],[0.75,0,0],[1,0.25,0],[1,0.5,0],[1,0.75,0],[0.75,1,0],[0.5,1,0],[0.25,1,0],[0,0.75,0],[0,0.5,0],[0,0.25,0]];" vertex="1" parent="1">
            <mxGeometry x="880" y="640" width="240" height="120" as="geometry" />
          </mxCell>
        </object>
        <object placeholders="1" c4Name="Base de Datos" c4Type="Contenedor: esquema de base de datos MySQL" c4Technology="MySQL" c4Description="Almacena información de registro de usuario, credenciales de autenticación hash, registro de reservación de MB, etc" label="&lt;font style=&quot;font-size: 12px&quot;&gt;&lt;b&gt;%c4Name%&lt;/b&gt;&lt;/font&gt;&lt;div&gt;[%c4Type%:&amp;nbsp;%c4Technology%]&lt;/div&gt;&lt;br&gt;&lt;div&gt;&lt;font style=&quot;font-size: 11px&quot;&gt;&lt;font color=&quot;#E6E6E6&quot;&gt;%c4Description%&lt;/font&gt;&lt;/div&gt;" id="6dciglApY7YEgq8CEYNH-17">
          <mxCell style="shape=cylinder3;size=15;whiteSpace=wrap;html=1;boundedLbl=1;rounded=0;labelBackgroundColor=none;fillColor=#23A2D9;fontSize=12;fontColor=#ffffff;align=center;strokeColor=#0E7DAD;metaEdit=1;points=[[0.5,0,0],[1,0.25,0],[1,0.5,0],[1,0.75,0],[0.5,1,0],[0,0.75,0],[0,0.5,0],[0,0.25,0]];resizable=0;" vertex="1" parent="1">
            <mxGeometry x="90" y="950" width="240" height="120" as="geometry" />
          </mxCell>
        </object>
        <object placeholders="1" c4Name="E-Mail" c4Type="Software System" c4Description="Permite la notificación de reservación de material bibliográfico, alertas de gestión " label="&lt;font style=&quot;font-size: 16px&quot;&gt;&lt;b&gt;%c4Name%&lt;/b&gt;&lt;/font&gt;&lt;div&gt;[%c4Type%]&lt;/div&gt;&lt;br&gt;&lt;div&gt;&lt;font style=&quot;font-size: 11px&quot;&gt;&lt;font color=&quot;#cccccc&quot;&gt;%c4Description%&lt;/font&gt;&lt;/div&gt;" id="6dciglApY7YEgq8CEYNH-18">
          <mxCell style="rounded=1;whiteSpace=wrap;html=1;labelBackgroundColor=none;fillColor=#8C8496;fontColor=#ffffff;align=center;arcSize=10;strokeColor=#736782;metaEdit=1;resizable=0;points=[[0.25,0,0],[0.5,0,0],[0.75,0,0],[1,0.25,0],[1,0.5,0],[1,0.75,0],[0.75,1,0],[0.5,1,0],[0.25,1,0],[0,0.75,0],[0,0.5,0],[0,0.25,0]];" vertex="1" parent="1">
            <mxGeometry x="480" y="950" width="240" height="120" as="geometry" />
          </mxCell>
        </object>
        <object placeholders="1" c4Name="Sistema de Gestión Principal" c4Type="Software System" c4Description="Se encuentra la información de roles y permisos para uso y gestión de material bibliográfico" label="&lt;font style=&quot;font-size: 16px&quot;&gt;&lt;b&gt;%c4Name%&lt;/b&gt;&lt;/font&gt;&lt;div&gt;[%c4Type%]&lt;/div&gt;&lt;br&gt;&lt;div&gt;&lt;font style=&quot;font-size: 11px&quot;&gt;&lt;font color=&quot;#cccccc&quot;&gt;%c4Description%&lt;/font&gt;&lt;/div&gt;" id="6dciglApY7YEgq8CEYNH-19">
          <mxCell style="rounded=1;whiteSpace=wrap;html=1;labelBackgroundColor=none;fillColor=#8C8496;fontColor=#ffffff;align=center;arcSize=10;strokeColor=#736782;metaEdit=1;resizable=0;points=[[0.25,0,0],[0.5,0,0],[0.75,0,0],[1,0.25,0],[1,0.5,0],[1,0.75,0],[0.75,1,0],[0.5,1,0],[0.25,1,0],[0,0.75,0],[0,0.5,0],[0,0.25,0]];" vertex="1" parent="1">
            <mxGeometry x="880" y="950" width="240" height="120" as="geometry" />
          </mxCell>
        </object>
        <mxCell id="6dciglApY7YEgq8CEYNH-25" style="rounded=0;orthogonalLoop=1;jettySize=auto;html=1;dashed=1;dashPattern=12 12;" edge="1" parent="1" source="6dciglApY7YEgq8CEYNH-48" target="6dciglApY7YEgq8CEYNH-13">
          <mxGeometry relative="1" as="geometry" />
        </mxCell>
        <mxCell id="6dciglApY7YEgq8CEYNH-26" style="rounded=0;orthogonalLoop=1;jettySize=auto;html=1;dashed=1;dashPattern=12 12;" edge="1" parent="1" source="6dciglApY7YEgq8CEYNH-50" target="6dciglApY7YEgq8CEYNH-15">
          <mxGeometry relative="1" as="geometry" />
        </mxCell>
        <object placeholders="1" c4Name="App Movil" c4Type="Container" c4Technology="Contenedor: React" c4Description="Proporciona la funcionalidad de gestión y reservación e MB a través de sus dispositivo movil" label="&lt;font style=&quot;font-size: 16px&quot;&gt;&lt;b&gt;%c4Name%&lt;/b&gt;&lt;/font&gt;&lt;div&gt;[%c4Type%: %c4Technology%]&lt;/div&gt;&lt;br&gt;&lt;div&gt;&lt;font style=&quot;font-size: 11px&quot;&gt;&lt;font color=&quot;#E6E6E6&quot;&gt;%c4Description%&lt;/font&gt;&lt;/div&gt;" id="6dciglApY7YEgq8CEYNH-20">
          <mxCell style="rounded=1;whiteSpace=wrap;html=1;fontSize=11;labelBackgroundColor=none;fillColor=#23A2D9;fontColor=#ffffff;align=center;arcSize=10;strokeColor=#0E7DAD;metaEdit=1;resizable=0;points=[[0.25,0,0],[0.5,0,0],[0.75,0,0],[1,0.25,0],[1,0.5,0],[1,0.75,0],[0.75,1,0],[0.5,1,0],[0.25,1,0],[0,0.75,0],[0,0.5,0],[0,0.25,0]];" vertex="1" parent="1">
            <mxGeometry x="840" y="100" width="240" height="120" as="geometry" />
          </mxCell>
        </object>
        <mxCell id="6dciglApY7YEgq8CEYNH-24" style="rounded=0;orthogonalLoop=1;jettySize=auto;html=1;entryX=0.75;entryY=0;entryDx=0;entryDy=0;entryPerimeter=0;dashed=1;dashPattern=12 12;" edge="1" parent="1" source="6dciglApY7YEgq8CEYNH-44" target="6dciglApY7YEgq8CEYNH-3">
          <mxGeometry relative="1" as="geometry" />
        </mxCell>
        <mxCell id="6dciglApY7YEgq8CEYNH-27" style="rounded=0;orthogonalLoop=1;jettySize=auto;html=1;entryX=1;entryY=0.5;entryDx=0;entryDy=0;entryPerimeter=0;dashed=1;dashPattern=12 12;" edge="1" parent="1" source="6dciglApY7YEgq8CEYNH-38" target="6dciglApY7YEgq8CEYNH-4">
          <mxGeometry relative="1" as="geometry" />
        </mxCell>
        <mxCell id="6dciglApY7YEgq8CEYNH-28" style="rounded=0;orthogonalLoop=1;jettySize=auto;html=1;entryX=0.5;entryY=0;entryDx=0;entryDy=0;entryPerimeter=0;dashed=1;dashPattern=12 12;" edge="1" parent="1" source="6dciglApY7YEgq8CEYNH-57" target="6dciglApY7YEgq8CEYNH-17">
          <mxGeometry relative="1" as="geometry" />
        </mxCell>
        <mxCell id="6dciglApY7YEgq8CEYNH-29" style="edgeStyle=orthogonalEdgeStyle;rounded=0;orthogonalLoop=1;jettySize=auto;html=1;entryX=0.5;entryY=0;entryDx=0;entryDy=0;entryPerimeter=0;dashed=1;dashPattern=12 12;" edge="1" parent="1" source="6dciglApY7YEgq8CEYNH-36" target="6dciglApY7YEgq8CEYNH-14">
          <mxGeometry relative="1" as="geometry" />
        </mxCell>
        <mxCell id="6dciglApY7YEgq8CEYNH-30" style="rounded=0;orthogonalLoop=1;jettySize=auto;html=1;entryX=0.5;entryY=0;entryDx=0;entryDy=0;entryPerimeter=0;dashed=1;dashPattern=12 12;" edge="1" parent="1" source="6dciglApY7YEgq8CEYNH-55" target="6dciglApY7YEgq8CEYNH-18">
          <mxGeometry relative="1" as="geometry" />
        </mxCell>
        <mxCell id="6dciglApY7YEgq8CEYNH-32" style="rounded=0;orthogonalLoop=1;jettySize=auto;html=1;dashed=1;dashPattern=12 12;entryX=0.5;entryY=0;entryDx=0;entryDy=0;entryPerimeter=0;" edge="1" parent="1" source="6dciglApY7YEgq8CEYNH-53" target="6dciglApY7YEgq8CEYNH-19">
          <mxGeometry relative="1" as="geometry">
            <mxPoint x="1020" y="950" as="targetPoint" />
          </mxGeometry>
        </mxCell>
        <mxCell id="6dciglApY7YEgq8CEYNH-35" value="" style="edgeStyle=orthogonalEdgeStyle;rounded=0;orthogonalLoop=1;jettySize=auto;html=1;dashed=1;dashPattern=12 12;endArrow=none;endFill=0;" edge="1" parent="1" source="6dciglApY7YEgq8CEYNH-15" target="6dciglApY7YEgq8CEYNH-33">
          <mxGeometry relative="1" as="geometry">
            <mxPoint x="1000" y="520" as="sourcePoint" />
            <mxPoint x="1000" y="640" as="targetPoint" />
          </mxGeometry>
        </mxCell>
        <mxCell id="6dciglApY7YEgq8CEYNH-33" value="Usos" style="text;html=1;align=center;verticalAlign=middle;whiteSpace=wrap;rounded=0;" vertex="1" parent="1">
          <mxGeometry x="970" y="569.5" width="60" height="30" as="geometry" />
        </mxCell>
        <mxCell id="6dciglApY7YEgq8CEYNH-37" value="" style="edgeStyle=orthogonalEdgeStyle;rounded=0;orthogonalLoop=1;jettySize=auto;html=1;entryX=0.5;entryY=0;entryDx=0;entryDy=0;entryPerimeter=0;dashed=1;dashPattern=12 12;endArrow=none;endFill=0;" edge="1" parent="1" source="6dciglApY7YEgq8CEYNH-13" target="6dciglApY7YEgq8CEYNH-36">
          <mxGeometry relative="1" as="geometry">
            <mxPoint x="600" y="520" as="sourcePoint" />
            <mxPoint x="600" y="640" as="targetPoint" />
          </mxGeometry>
        </mxCell>
        <mxCell id="6dciglApY7YEgq8CEYNH-36" value="Usos" style="text;html=1;align=center;verticalAlign=middle;whiteSpace=wrap;rounded=0;" vertex="1" parent="1">
          <mxGeometry x="570" y="555" width="60" height="30" as="geometry" />
        </mxCell>
        <mxCell id="6dciglApY7YEgq8CEYNH-39" value="" style="rounded=0;orthogonalLoop=1;jettySize=auto;html=1;dashed=1;dashPattern=12 12;endArrow=none;endFill=0;" edge="1" parent="1" source="6dciglApY7YEgq8CEYNH-13" target="6dciglApY7YEgq8CEYNH-38">
          <mxGeometry relative="1" as="geometry">
            <mxPoint x="533" y="520" as="sourcePoint" />
            <mxPoint x="330" y="700" as="targetPoint" />
          </mxGeometry>
        </mxCell>
        <mxCell id="6dciglApY7YEgq8CEYNH-38" value="Usos" style="text;html=1;align=center;verticalAlign=middle;whiteSpace=wrap;rounded=0;" vertex="1" parent="1">
          <mxGeometry x="430" y="580" width="60" height="30" as="geometry" />
        </mxCell>
        <mxCell id="6dciglApY7YEgq8CEYNH-41" value="" style="rounded=0;orthogonalLoop=1;jettySize=auto;html=1;dashed=1;dashPattern=12 12;endArrow=none;endFill=0;" edge="1" parent="1" source="6dciglApY7YEgq8CEYNH-2" target="6dciglApY7YEgq8CEYNH-40">
          <mxGeometry relative="1" as="geometry">
            <mxPoint x="377" y="250" as="sourcePoint" />
            <mxPoint x="258" y="400" as="targetPoint" />
          </mxGeometry>
        </mxCell>
        <mxCell id="6dciglApY7YEgq8CEYNH-40" value="Realiza llamadas al API para JSON/HTTPS" style="text;html=1;align=center;verticalAlign=middle;whiteSpace=wrap;rounded=0;" vertex="1" parent="1">
          <mxGeometry x="260" y="300" width="140" height="30" as="geometry" />
        </mxCell>
        <mxCell id="6dciglApY7YEgq8CEYNH-43" value="" style="rounded=0;orthogonalLoop=1;jettySize=auto;html=1;dashed=1;dashPattern=12 12;endArrow=none;endFill=0;" edge="1" parent="1" source="6dciglApY7YEgq8CEYNH-2" target="6dciglApY7YEgq8CEYNH-42">
          <mxGeometry relative="1" as="geometry">
            <mxPoint x="484" y="250" as="sourcePoint" />
            <mxPoint x="567" y="400" as="targetPoint" />
          </mxGeometry>
        </mxCell>
        <mxCell id="6dciglApY7YEgq8CEYNH-42" value="Realiza llamadas al API para JSON/HTTPS" style="text;html=1;align=center;verticalAlign=middle;whiteSpace=wrap;rounded=0;" vertex="1" parent="1">
          <mxGeometry x="460" y="330" width="140" height="30" as="geometry" />
        </mxCell>
        <mxCell id="6dciglApY7YEgq8CEYNH-45" value="" style="rounded=0;orthogonalLoop=1;jettySize=auto;html=1;entryX=0.75;entryY=0;entryDx=0;entryDy=0;entryPerimeter=0;dashed=1;dashPattern=12 12;endArrow=none;endFill=0;" edge="1" parent="1" source="6dciglApY7YEgq8CEYNH-20" target="6dciglApY7YEgq8CEYNH-44">
          <mxGeometry relative="1" as="geometry">
            <mxPoint x="840" y="202" as="sourcePoint" />
            <mxPoint x="270" y="400" as="targetPoint" />
          </mxGeometry>
        </mxCell>
        <mxCell id="6dciglApY7YEgq8CEYNH-44" value="Realiza llamadas al API para JSON/HTTPS" style="text;html=1;align=center;verticalAlign=middle;whiteSpace=wrap;rounded=0;" vertex="1" parent="1">
          <mxGeometry x="320" y="340" width="140" height="30" as="geometry" />
        </mxCell>
        <mxCell id="6dciglApY7YEgq8CEYNH-47" value="" style="rounded=0;orthogonalLoop=1;jettySize=auto;html=1;dashed=1;dashPattern=12 12;endArrow=none;endFill=0;" edge="1" parent="1" source="6dciglApY7YEgq8CEYNH-2" target="6dciglApY7YEgq8CEYNH-46">
          <mxGeometry relative="1" as="geometry">
            <mxPoint x="560" y="232" as="sourcePoint" />
            <mxPoint x="884" y="400" as="targetPoint" />
          </mxGeometry>
        </mxCell>
        <mxCell id="6dciglApY7YEgq8CEYNH-46" value="Realiza llamadas al API para JSON/HTTPS" style="text;html=1;align=center;verticalAlign=middle;whiteSpace=wrap;rounded=0;" vertex="1" parent="1">
          <mxGeometry x="610" y="290" width="140" height="30" as="geometry" />
        </mxCell>
        <mxCell id="6dciglApY7YEgq8CEYNH-49" value="" style="rounded=0;orthogonalLoop=1;jettySize=auto;html=1;dashed=1;dashPattern=12 12;endArrow=none;endFill=0;" edge="1" parent="1" source="6dciglApY7YEgq8CEYNH-20" target="6dciglApY7YEgq8CEYNH-48">
          <mxGeometry relative="1" as="geometry">
            <mxPoint x="888" y="220" as="sourcePoint" />
            <mxPoint x="672" y="400" as="targetPoint" />
          </mxGeometry>
        </mxCell>
        <mxCell id="6dciglApY7YEgq8CEYNH-48" value="Realiza llamadas al API para JSON/HTTPS" style="text;html=1;align=center;verticalAlign=middle;whiteSpace=wrap;rounded=0;" vertex="1" parent="1">
          <mxGeometry x="770" y="250" width="140" height="30" as="geometry" />
        </mxCell>
        <mxCell id="6dciglApY7YEgq8CEYNH-51" value="" style="rounded=0;orthogonalLoop=1;jettySize=auto;html=1;dashed=1;dashPattern=12 12;endArrow=none;endFill=0;" edge="1" parent="1" source="6dciglApY7YEgq8CEYNH-20" target="6dciglApY7YEgq8CEYNH-50">
          <mxGeometry relative="1" as="geometry">
            <mxPoint x="968" y="220" as="sourcePoint" />
            <mxPoint x="992" y="400" as="targetPoint" />
          </mxGeometry>
        </mxCell>
        <mxCell id="6dciglApY7YEgq8CEYNH-50" value="Realiza llamadas al API para JSON/HTTPS" style="text;html=1;align=center;verticalAlign=middle;whiteSpace=wrap;rounded=0;" vertex="1" parent="1">
          <mxGeometry x="900" y="270" width="140" height="30" as="geometry" />
        </mxCell>
        <mxCell id="6dciglApY7YEgq8CEYNH-54" value="" style="rounded=0;orthogonalLoop=1;jettySize=auto;html=1;dashed=1;dashPattern=12 12;endArrow=none;endFill=0;" edge="1" parent="1" source="6dciglApY7YEgq8CEYNH-16" target="6dciglApY7YEgq8CEYNH-53">
          <mxGeometry relative="1" as="geometry">
            <mxPoint x="1000" y="760" as="sourcePoint" />
            <mxPoint x="1000" y="950" as="targetPoint" />
          </mxGeometry>
        </mxCell>
        <mxCell id="6dciglApY7YEgq8CEYNH-53" value="Realiza llamadas al API para XML/HTTPS" style="text;html=1;align=center;verticalAlign=middle;whiteSpace=wrap;rounded=0;" vertex="1" parent="1">
          <mxGeometry x="930" y="860" width="140" height="30" as="geometry" />
        </mxCell>
        <mxCell id="6dciglApY7YEgq8CEYNH-56" value="" style="rounded=0;orthogonalLoop=1;jettySize=auto;html=1;entryX=0.5;entryY=0;entryDx=0;entryDy=0;entryPerimeter=0;dashed=1;dashPattern=12 12;endArrow=none;endFill=0;" edge="1" parent="1" source="6dciglApY7YEgq8CEYNH-14" target="6dciglApY7YEgq8CEYNH-55">
          <mxGeometry relative="1" as="geometry">
            <mxPoint x="600" y="760" as="sourcePoint" />
            <mxPoint x="600" y="950" as="targetPoint" />
          </mxGeometry>
        </mxCell>
        <mxCell id="6dciglApY7YEgq8CEYNH-55" value="Envía mensajes usando" style="text;html=1;align=center;verticalAlign=middle;whiteSpace=wrap;rounded=0;" vertex="1" parent="1">
          <mxGeometry x="530" y="850" width="140" height="30" as="geometry" />
        </mxCell>
        <mxCell id="6dciglApY7YEgq8CEYNH-58" value="" style="rounded=0;orthogonalLoop=1;jettySize=auto;html=1;entryX=0.5;entryY=0;entryDx=0;entryDy=0;entryPerimeter=0;dashed=1;dashPattern=12 12;endArrow=none;endFill=0;" edge="1" parent="1" source="6dciglApY7YEgq8CEYNH-4" target="6dciglApY7YEgq8CEYNH-57">
          <mxGeometry relative="1" as="geometry">
            <mxPoint x="210" y="760" as="sourcePoint" />
            <mxPoint x="210" y="950" as="targetPoint" />
          </mxGeometry>
        </mxCell>
        <mxCell id="6dciglApY7YEgq8CEYNH-57" value="Lee y escribe en MySQL" style="text;html=1;align=center;verticalAlign=middle;whiteSpace=wrap;rounded=0;" vertex="1" parent="1">
          <mxGeometry x="140" y="850" width="140" height="30" as="geometry" />
        </mxCell>
      </root>
    </mxGraphModel>
  </diagram>
</mxfile>
